<svg xmlns="http://www.w3.org/2000/svg" width="28" height="28" viewBox="0 0 28 28">
  <g id="ic_eye_on" transform="translate(-1.91 -1.91)">
    <rect id="Rectangle_8" data-name="Rectangle 8" width="28" height="28" transform="translate(1.91 1.91)" opacity="0.01"/>
    <path id="Path_3" data-name="Path 3" d="M15.91,4C11.985,4,8.558,5.878,5.651,8.957a23.438,23.438,0,0,0-2.591,3.3,17.384,17.384,0,0,0-.912,1.546,1.391,1.391,0,0,0,0,1.251l.149.283c.176.321.43.751.763,1.262a23.434,23.434,0,0,0,2.591,3.3c2.907,3.079,6.334,4.957,10.258,4.957s7.351-1.878,10.258-4.957a23.436,23.436,0,0,0,2.591-3.3,17.418,17.418,0,0,0,.912-1.545,1.391,1.391,0,0,0,0-1.251l-.15-.283c-.176-.321-.43-.751-.763-1.262a23.44,23.44,0,0,0-2.591-3.3C23.261,5.878,19.834,4,15.91,4Zm0,2.782c3.046,0,5.807,1.513,8.235,4.084a20.679,20.679,0,0,1,2.281,2.911l.264.415.145.239-.271.44-.138.215A20.673,20.673,0,0,1,24.145,18c-2.428,2.572-5.189,4.085-8.235,4.085S10.1,20.57,7.674,18a20.68,20.68,0,0,1-2.282-2.911l-.264-.415-.147-.239.273-.44.138-.215a20.685,20.685,0,0,1,2.282-2.911C10.1,8.295,12.863,6.782,15.91,6.782Zm0,2.869a4.781,4.781,0,1,0,4.805,4.781A4.793,4.793,0,0,0,15.91,9.651Zm0,2.782a2,2,0,1,1-2.023,2A2.011,2.011,0,0,1,15.91,12.433Z" transform="translate(0 0.782)" fill="#9393aa" fill-rule="evenodd"/>
  </g>
</svg>
