<svg xmlns="http://www.w3.org/2000/svg" width="355.236" height="236.134" viewBox="0 0 355.236 236.134">
  <g id="Group_61" data-name="Group 61" transform="translate(-28.256 -27.626)">
    <g id="BACKGROUND" transform="translate(37.031 38.215)">
      <g id="Group_10" data-name="Group 10" transform="translate(0 0)">
        <g id="Group_9" data-name="Group 9">
          <rect id="Rectangle_9" data-name="Rectangle 9" width="42.984" height="18.725" rx="9.362" transform="translate(19.985 112.348)" fill="#bceded"/>
          <path id="Path_4" data-name="Path 4" d="M381.272,404.527H357.014a9.362,9.362,0,1,0,0,18.725h24.259a9.362,9.362,0,1,0,0-18.725Z" transform="translate(-188.776 -217.281)" fill="#fff"/>
          <path id="Path_5" data-name="Path 5" d="M656.758,404.527H632.5a9.362,9.362,0,1,0,0,18.725h24.259a9.362,9.362,0,1,0,0-18.725Z" transform="translate(-319.66 -217.281)" fill="#1cb9ba" opacity="0.2"/>
          <rect id="Rectangle_10" data-name="Rectangle 10" width="44.958" height="18.725" rx="9.362" transform="translate(266.9 74.898)" fill="#1cb9ba" opacity="0.2"/>
          <rect id="Rectangle_11" data-name="Rectangle 11" width="27.91" height="18.725" rx="9.362" transform="translate(0 74.898)" fill="#bceded"/>
          <path id="Path_6" data-name="Path 6" d="M633.228,333.182a9.362,9.362,0,1,0,0,18.724h2.385a9.362,9.362,0,1,0,0-18.724Z" transform="translate(-320.006 -183.385)" fill="#1cb9ba" opacity="0.2"/>
          <path id="Path_7" data-name="Path 7" d="M676.416,199.853a9.39,9.39,0,0,0-9.362-9.363h-2.385a9.362,9.362,0,0,0,0,18.725h2.385A9.389,9.389,0,0,0,676.416,199.853Z" transform="translate(-334.944 -115.592)" fill="#1cb9ba" opacity="0.2"/>
          <path id="Path_8" data-name="Path 8" d="M119.255,66.524h2.385a9.362,9.362,0,1,0,0-18.725h-2.385a9.362,9.362,0,0,0,0,18.725Z" transform="translate(-75.817 -47.799)" fill="#bceded"/>
          <path id="Path_9" data-name="Path 9" d="M624.473,271.2a9.389,9.389,0,0,0-9.362-9.362H566.248a9.362,9.362,0,0,0,0,18.725h48.863A9.39,9.39,0,0,0,624.473,271.2Z" transform="translate(-288.184 -149.488)" fill="#1cb9ba" opacity="0.2"/>
          <path id="Path_10" data-name="Path 10" d="M609.062,66.524h19.751a9.362,9.362,0,0,0,0-18.725H609.062a9.362,9.362,0,0,0,0,18.725Z" transform="translate(-308.525 -47.799)" fill="#1cb9ba" opacity="0.2"/>
          <path id="Path_11" data-name="Path 11" d="M351.624,235.045H348.4a9.39,9.39,0,0,1-9.363-9.362h0a9.39,9.39,0,0,1,9.363-9.363h.077a9.362,9.362,0,1,0,0-18.724H292.609a9.362,9.362,0,0,1,0-18.725h19.866a9.39,9.39,0,0,0,9.362-9.363h0a9.389,9.389,0,0,0-9.362-9.362h-8.882a9.389,9.389,0,0,1-9.362-9.362h0a9.39,9.39,0,0,1,9.362-9.362h5.57a9.389,9.389,0,0,0,9.362-9.362h0a9.39,9.39,0,0,0-9.362-9.363H296.874a9.362,9.362,0,1,1,0-18.724H344a9.362,9.362,0,1,0,0-18.725h-37a9.362,9.362,0,1,1,0-18.725h25.966a9.389,9.389,0,0,0,9.362-9.362h0a9.39,9.39,0,0,0-9.362-9.363H137.252a9.39,9.39,0,0,0-9.362,9.363h0a9.389,9.389,0,0,0,9.362,9.362h12.289a9.362,9.362,0,1,1,0,18.725H136.186a9.362,9.362,0,0,0,0,18.725h3.223a9.362,9.362,0,1,1,0,18.724h-5.451a9.39,9.39,0,0,0-9.362,9.363h0a9.389,9.389,0,0,0,9.362,9.362h16.593a9.39,9.39,0,0,1,9.362,9.362h0a9.389,9.389,0,0,1-9.362,9.362h-1.278a9.389,9.389,0,0,0-9.362,9.362h0a9.39,9.39,0,0,0,9.362,9.363h1.917a9.362,9.362,0,1,1,0,18.725H111.628a9.362,9.362,0,1,0,0,18.724h26.338a9.39,9.39,0,0,1,9.362,9.363h0a9.389,9.389,0,0,1-9.362,9.362H90.839a9.362,9.362,0,0,0,0,18.725H200.624a9.362,9.362,0,0,0,0-18.725h-7.9a9.389,9.389,0,0,1-9.362-9.362h0a9.39,9.39,0,0,1,9.362-9.363h92.763a9.39,9.39,0,0,1,9.362,9.363h0a9.389,9.389,0,0,1-9.362,9.362h-1.374a9.362,9.362,0,1,0,0,18.725h67.516a9.362,9.362,0,1,0,0-18.725ZM192.965,113.335a9.389,9.389,0,0,1,9.362-9.362H203.7a9.362,9.362,0,0,0,0-18.725h.593a9.362,9.362,0,1,1,0-18.725h39.793a9.362,9.362,0,0,1,0,18.725h-9.871a9.362,9.362,0,0,0,0,18.725h7.9a9.362,9.362,0,1,1,0,18.724H202.327A9.389,9.389,0,0,1,192.965,113.335Zm2.978,37.449h0a9.39,9.39,0,0,1,9.362-9.362h66.23a9.39,9.39,0,0,1,9.363,9.362h0a9.39,9.39,0,0,1-9.363,9.362h-66.23A9.389,9.389,0,0,1,195.943,150.785Z" transform="translate(-62.316 -47.799)" fill="#1cb9ba" opacity="0.2"/>
          <rect id="Rectangle_12" data-name="Rectangle 12" width="42.984" height="18.725" rx="9.362" transform="translate(16.717 37.449)" fill="#bceded"/>
          <rect id="Rectangle_13" data-name="Rectangle 13" width="42.984" height="18.725" rx="9.362" transform="translate(298.671 37.449)" fill="#1cb9ba" opacity="0.2"/>
          <path id="Path_12" data-name="Path 12" d="M123.043,209.215a9.362,9.362,0,1,0,0-18.725h-.835a9.362,9.362,0,1,0,0,18.725Z" transform="translate(-77.219 -115.592)" fill="#fff"/>
        </g>
      </g>
    </g>
    <g id="OBJECTS" transform="translate(28.256 27.626)">
      <g id="Group_11" data-name="Group 11" transform="translate(115.357 220.457)">
        <path id="Path_13" data-name="Path 13" d="M373.485,463.3H255.865a7.862,7.862,0,0,1-7.839-7.838h0a7.862,7.862,0,0,1,7.839-7.839h117.62a7.862,7.862,0,0,1,7.839,7.839h0A7.862,7.862,0,0,1,373.485,463.3Z" transform="translate(-248.026 -447.625)" opacity="0.05" style="mix-blend-mode: multiply;isolation: isolate"/>
        <path id="Path_14" data-name="Path 14" d="M375.605,462.028H268.483a4.961,4.961,0,0,1-4.946-4.947h0a4.961,4.961,0,0,1,4.946-4.946H375.605a4.961,4.961,0,0,1,4.946,4.946h0A4.961,4.961,0,0,1,375.605,462.028Z" transform="translate(-255.395 -449.768)" opacity="0.05" style="mix-blend-mode: multiply;isolation: isolate"/>
      </g>
      <g id="Group_60" data-name="Group 60">
        <g id="Group_35" data-name="Group 35" transform="translate(49.111 28.046)">
          <g id="Group_34" data-name="Group 34">
            <g id="Group_12" data-name="Group 12" transform="translate(97.837 156.006)">
              <path id="Path_15" data-name="Path 15" d="M378.326,410.487H308.211l8.613-32.217h52.889Z" transform="translate(-308.211 -378.269)" fill="#87abc7"/>
              <path id="Path_16" data-name="Path 16" d="M343.269,430.544A148.771,148.771,0,0,1,310,426.93l-1.785,6.676h70.115l-1.785-6.676A148.758,148.758,0,0,1,343.269,430.544Z" transform="translate(-308.211 -401.388)" opacity="0.1" style="mix-blend-mode: multiply;isolation: isolate"/>
              <path id="Path_17" data-name="Path 17" d="M349.356,382.755a152.467,152.467,0,0,1,28.331,2.574l-1.887-7.06H322.912l-1.888,7.06A152.479,152.479,0,0,1,349.356,382.755Z" transform="translate(-314.298 -378.269)" opacity="0.1" style="mix-blend-mode: multiply;isolation: isolate"/>
            </g>
            <rect id="Rectangle_14" data-name="Rectangle 14" width="265.789" height="156.434" rx="13.918" fill="#98c1e0"/>
            <rect id="Rectangle_15" data-name="Rectangle 15" width="254.318" height="146.078" rx="3.554" transform="translate(5.735 5.178)" fill="#b9dcf7"/>
            <path id="Path_18" data-name="Path 18" d="M535.036,90.922h-86.91V237h86.91a1.865,1.865,0,0,0,1.865-1.865V92.788A1.866,1.866,0,0,0,535.036,90.922Z" transform="translate(-276.848 -85.744)" fill="#87abc7"/>
            <path id="Path_19" data-name="Path 19" d="M462.731,168.695l8.774-2.729h57.363a4.155,4.155,0,0,0,4.144-4.144V145.63a4.155,4.155,0,0,0-4.144-4.144H469.317a4.155,4.155,0,0,0-4.143,4.144v14.73l-1.35,2.552h0l-2.294,4.337A1.017,1.017,0,0,0,462.731,168.695Z" transform="translate(-283.159 -109.767)" opacity="0.1" style="mix-blend-mode: multiply;isolation: isolate"/>
            <path id="Path_20" data-name="Path 20" d="M528.869,268.378a4.156,4.156,0,0,0,4.144-4.144v-7.461a4.155,4.155,0,0,0-4.144-4.143H469.317a4.155,4.155,0,0,0-4.143,4.143v6l-1.35,2.552h0l-2.294,4.337a1.017,1.017,0,0,0,1.2,1.447l8.774-2.729Z" transform="translate(-283.159 -162.572)" opacity="0.1" style="mix-blend-mode: multiply;isolation: isolate"/>
            <path id="Path_21" data-name="Path 21" d="M536.42,215.987V205.915a4.156,4.156,0,0,0-4.144-4.144H472.724a4.155,4.155,0,0,0-4.143,4.144V217.45a4.155,4.155,0,0,0,4.143,4.143h57.364l8.774,2.73a1.017,1.017,0,0,0,1.2-1.447l-2.294-4.337h0Z" transform="translate(-286.566 -138.408)" opacity="0.1" style="mix-blend-mode: multiply;isolation: isolate"/>
            <path id="Path_22" data-name="Path 22" d="M537.769,311.385h0l-1.349-2.552V298.761a4.156,4.156,0,0,0-4.144-4.144H472.724a4.155,4.155,0,0,0-4.143,4.144V310.3a4.155,4.155,0,0,0,4.143,4.143h57.364l8.774,2.73a1.017,1.017,0,0,0,1.2-1.447Z" transform="translate(-286.566 -182.52)" opacity="0.1" style="mix-blend-mode: multiply;isolation: isolate"/>
            <path id="Path_23" data-name="Path 23" d="M535.036,90.922h-86.91V109.26h86.91a3.869,3.869,0,0,0,1.865-.237V92.788A1.866,1.866,0,0,0,535.036,90.922Z" transform="translate(-276.848 -85.744)" fill="#6992b3"/>
            <g id="Group_25" data-name="Group 25" transform="translate(178.25 29.512)">
              <g id="Group_15" data-name="Group 15">
                <path id="Path_24" data-name="Path 24" d="M466.389,168.857l-4.859,9.188a1.017,1.017,0,0,0,1.2,1.446l10.884-3.386Z" transform="translate(-461.409 -152.283)" fill="#fff"/>
                <path id="Path_25" data-name="Path 25" d="M468.575,168.857l-2.565,4.851a4.422,4.422,0,0,0,4.128,4.159l5.663-1.762Z" transform="translate(-463.595 -152.283)" opacity="0.15" style="mix-blend-mode: multiply;isolation: isolate"/>
                <g id="Group_14" data-name="Group 14" transform="translate(3.764)">
                  <rect id="Rectangle_16" data-name="Rectangle 16" width="67.839" height="24.479" rx="7.894" fill="#fff"/>
                  <g id="Group_13" data-name="Group 13" transform="translate(6.219 5.669)">
                    <line id="Line_1" data-name="Line 1" x2="55.401" fill="none" stroke="#d3e2ed" stroke-linecap="round" stroke-linejoin="round" stroke-width="2.085"/>
                    <line id="Line_2" data-name="Line 2" x2="55.401" transform="translate(0 4.381)" fill="none" stroke="#d3e2ed" stroke-linecap="round" stroke-linejoin="round" stroke-width="2.085"/>
                    <line id="Line_3" data-name="Line 3" x2="55.401" transform="translate(0 8.761)" fill="none" stroke="#d3e2ed" stroke-linecap="round" stroke-linejoin="round" stroke-width="2.085"/>
                    <line id="Line_4" data-name="Line 4" x2="42.835" transform="translate(0 13.142)" fill="none" stroke="#d3e2ed" stroke-linecap="round" stroke-linejoin="round" stroke-width="2.085"/>
                  </g>
                </g>
              </g>
              <g id="Group_18" data-name="Group 18" transform="translate(0 58.339)">
                <path id="Path_26" data-name="Path 26" d="M466.389,263.367l-4.859,9.188a1.017,1.017,0,0,0,1.2,1.447l10.884-3.386Z" transform="translate(-461.409 -255.524)" fill="#fff"/>
                <path id="Path_27" data-name="Path 27" d="M468.575,263.367l-2.565,4.851a4.423,4.423,0,0,0,4.128,4.16l5.663-1.762Z" transform="translate(-463.595 -255.524)" opacity="0.15" style="mix-blend-mode: multiply;isolation: isolate"/>
                <g id="Group_17" data-name="Group 17" transform="translate(3.764)">
                  <rect id="Rectangle_17" data-name="Rectangle 17" width="67.839" height="15.748" rx="7.874" fill="#fff"/>
                  <g id="Group_16" data-name="Group 16" transform="translate(6.219 5.699)">
                    <line id="Line_5" data-name="Line 5" x2="55.401" fill="none" stroke="#d3e2ed" stroke-linecap="round" stroke-linejoin="round" stroke-width="2.085"/>
                    <line id="Line_6" data-name="Line 6" x2="42.835" transform="translate(0 4.381)" fill="none" stroke="#d3e2ed" stroke-linecap="round" stroke-linejoin="round" stroke-width="2.085"/>
                  </g>
                </g>
              </g>
              <g id="Group_21" data-name="Group 21" transform="translate(3.764 31.643)">
                <path id="Path_28" data-name="Path 28" d="M588.966,220.271l4.859,9.188a1.017,1.017,0,0,1-1.2,1.447l-10.884-3.386Z" transform="translate(-522.343 -208.353)" fill="#fff"/>
                <path id="Path_29" data-name="Path 29" d="M588.966,220.271l2.565,4.851a4.423,4.423,0,0,1-4.128,4.159l-5.663-1.762Z" transform="translate(-522.343 -208.353)" opacity="0.15" style="mix-blend-mode: multiply;isolation: isolate"/>
                <g id="Group_20" data-name="Group 20" transform="translate(0 0)">
                  <rect id="Rectangle_18" data-name="Rectangle 18" width="67.839" height="19.823" rx="7.894" transform="translate(67.839 19.823) rotate(180)" fill="#fff"/>
                  <g id="Group_19" data-name="Group 19" transform="translate(6.219 5.669)">
                    <line id="Line_7" data-name="Line 7" x1="55.401" fill="none" stroke="#d3e2ed" stroke-linecap="round" stroke-linejoin="round" stroke-width="2.085"/>
                    <line id="Line_8" data-name="Line 8" x1="55.401" transform="translate(0 4.381)" fill="none" stroke="#d3e2ed" stroke-linecap="round" stroke-linejoin="round" stroke-width="2.085"/>
                    <line id="Line_9" data-name="Line 9" x1="42.835" transform="translate(12.566 8.517)" fill="none" stroke="#d3e2ed" stroke-linecap="round" stroke-linejoin="round" stroke-width="2.085"/>
                  </g>
                </g>
              </g>
              <g id="Group_24" data-name="Group 24" transform="translate(3.764 80.378)">
                <path id="Path_30" data-name="Path 30" d="M588.966,313.117l4.859,9.188a1.017,1.017,0,0,1-1.2,1.447l-10.884-3.386Z" transform="translate(-522.343 -301.199)" fill="#fff"/>
                <path id="Path_31" data-name="Path 31" d="M588.966,313.117l2.565,4.851a4.423,4.423,0,0,1-4.128,4.159l-5.663-1.762Z" transform="translate(-522.343 -301.199)" opacity="0.15" style="mix-blend-mode: multiply;isolation: isolate"/>
                <g id="Group_23" data-name="Group 23" transform="translate(0 0)">
                  <rect id="Rectangle_19" data-name="Rectangle 19" width="67.839" height="19.823" rx="7.894" transform="translate(67.839 19.823) rotate(180)" fill="#fff"/>
                  <g id="Group_22" data-name="Group 22" transform="translate(6.219 5.669)">
                    <line id="Line_10" data-name="Line 10" x1="55.401" fill="none" stroke="#d3e2ed" stroke-linecap="round" stroke-linejoin="round" stroke-width="2.085"/>
                    <line id="Line_11" data-name="Line 11" x1="55.401" transform="translate(0 4.381)" fill="none" stroke="#d3e2ed" stroke-linecap="round" stroke-linejoin="round" stroke-width="2.085"/>
                    <line id="Line_12" data-name="Line 12" x1="42.835" transform="translate(12.566 8.517)" fill="none" stroke="#d3e2ed" stroke-linecap="round" stroke-linejoin="round" stroke-width="2.085"/>
                  </g>
                </g>
              </g>
            </g>
            <g id="Group_26" data-name="Group 26" transform="translate(85.21 188.224)">
              <rect id="Rectangle_20" data-name="Rectangle 20" width="95.369" height="13.109" rx="6.555" fill="#b9dcf7"/>
              <path id="Path_32" data-name="Path 32" d="M373.05,452.337H290.631a6.5,6.5,0,0,1-6.114-4.368,6.409,6.409,0,0,0-.361,2.107v.159a6.494,6.494,0,0,0,6.475,6.475H373.05a6.494,6.494,0,0,0,6.475-6.475v-.159a6.408,6.408,0,0,0-.361-2.107A6.5,6.5,0,0,1,373.05,452.337Z" transform="translate(-284.156 -443.601)" opacity="0.05" style="mix-blend-mode: multiply;isolation: isolate"/>
            </g>
            <g id="Group_28" data-name="Group 28" transform="translate(125.488 0)">
              <path id="Path_33" data-name="Path 33" d="M360.889,81.057v6.929a7.407,7.407,0,1,0,14.814,0V81.057Z" transform="translate(-360.889 -81.057)" fill="#98c1e0"/>
              <g id="Group_27" data-name="Group 27" transform="translate(4.193 5.119)">
                <circle id="Ellipse_2" data-name="Ellipse 2" cx="3.213" cy="3.213" r="3.213" fill="#e0f4ff"/>
                <circle id="Ellipse_3" data-name="Ellipse 3" cx="1.453" cy="1.453" r="1.453" transform="translate(1.761 1.761)" fill="#fff"/>
              </g>
            </g>
            <path id="Path_34" data-name="Path 34" d="M121.819,347.141V356.6a7.305,7.305,0,0,0,7.306,7.306H380.3a7.305,7.305,0,0,0,7.306-7.306v-9.462Z" transform="translate(-121.819 -207.474)" fill="#b9dcf7"/>
            <g id="Group_33" data-name="Group 33" transform="translate(221.483 143.185)">
              <g id="Group_29" data-name="Group 29" transform="translate(21.342)">
                <rect id="Rectangle_21" data-name="Rectangle 21" width="9.732" height="9.732" rx="2.598" fill="#fff"/>
                <rect id="Rectangle_22" data-name="Rectangle 22" width="8.103" height="8.103" rx="2.163" transform="translate(0.814 0.814)" fill="#98c1e0"/>
                <path id="Path_35" data-name="Path 35" d="M586.949,358.628a4.581,4.581,0,0,0,7.091,0v-1.277a1,1,0,0,0-.994-.994h-5.1a1,1,0,0,0-.993.994Z" transform="translate(-585.628 -355.038)" fill="#fff" opacity="0.2"/>
              </g>
              <g id="Group_30" data-name="Group 30" transform="translate(13.368 2.629)">
                <rect id="Rectangle_23" data-name="Rectangle 23" width="4.474" height="4.474" rx="1.194" fill="#e0f4ff"/>
                <rect id="Rectangle_24" data-name="Rectangle 24" width="3.418" height="3.418" rx="0.912" transform="translate(0.528 0.528)" fill="#98c1e0"/>
              </g>
              <g id="Group_31" data-name="Group 31" transform="translate(6.684 2.629)">
                <rect id="Rectangle_25" data-name="Rectangle 25" width="4.474" height="4.474" rx="1.194" fill="#e0f4ff"/>
                <rect id="Rectangle_26" data-name="Rectangle 26" width="3.418" height="3.418" rx="0.912" transform="translate(0.528 0.528)" fill="#98c1e0"/>
              </g>
              <g id="Group_32" data-name="Group 32" transform="translate(0 2.629)">
                <rect id="Rectangle_27" data-name="Rectangle 27" width="4.474" height="4.474" rx="1.194" fill="#e0f4ff"/>
                <rect id="Rectangle_28" data-name="Rectangle 28" width="3.418" height="3.418" rx="0.912" transform="translate(0.528 0.528)" fill="#98c1e0"/>
              </g>
            </g>
            <text id="ONLINE_DOCTOR" data-name="ONLINE DOCTOR" transform="translate(179.43 16.235)" fill="#fff" font-size="7" font-family="Quicksand-Regular, Quicksand"><tspan x="0" y="0">ONLINE </tspan><tspan y="0" font-family="Quicksand-Bold, Quicksand" font-weight="700">DOCTOR</tspan></text>
            <path id="Path_36" data-name="Path 36" d="M132.745,334.252l254.318,3.831V341l-254.318.013Z" transform="translate(-127.01 -201.351)" opacity="0.05" style="mix-blend-mode: multiply;isolation: isolate"/>
          </g>
          <path id="Path_37" data-name="Path 37" d="M134.027,196.245l.185.005q.506.017,1.01.007l.182,0c.364-.012.728-.035,1.089-.068.081-.007.161-.016.241-.024.368-.038.735-.082,1.1-.141l.019,0c.361-.058.72-.129,1.078-.206l.239-.052c.351-.08.7-.167,1.048-.265l.193-.056q.472-.137.941-.293l.182-.059q.513-.176,1.02-.376l.24-.1c.342-.138.683-.281,1.02-.433l.046-.022c.328-.148.652-.3.975-.465l.235-.117q.484-.246.962-.508l.191-.108q.428-.24.85-.492l.176-.1q.467-.283.924-.579l.227-.149c.309-.2.615-.407.917-.618l.059-.041q.435-.3.861-.62l.212-.156q.432-.323.855-.652l.176-.14q.378-.3.747-.6l.153-.125q.411-.341.81-.687l.2-.171q.4-.351.795-.705l.052-.048q.376-.342.739-.684l.176-.166q.371-.352.729-.7l.136-.135q.327-.323.643-.644l.114-.115q.346-.354.679-.7l.142-.15c.224-.237.446-.474.66-.708l.013-.015c.215-.234.423-.465.628-.694l.11-.123q.3-.342.591-.674l.074-.086q.278-.323.541-.634l.044-.051q.276-.329.534-.644l.068-.083c.14-.171.277-.34.409-.5l-.185,3.3a1.3,1.3,0,0,0,1.356,1.333h1.269l-.123,2.194a1.343,1.343,0,0,0,.219.815l-.081,38.208h64.186l.12-1.091,4.949-45.1c.073.117.593.947,1.512,2.19l.04.055c.115.156.236.317.364.484l.04.052c.129.168.262.342.4.521l.014.018c.139.176.284.357.433.543l.081.1q.221.273.458.557l.081.1c.161.192.325.385.5.583l.024.027c.173.2.352.4.535.607l.109.122q.269.3.554.606l.117.124c.2.212.4.426.61.642l.022.023c.2.209.412.419.624.63l.132.131q.317.311.646.624l.149.141c.228.214.459.429.7.642l.069.061c.224.2.452.4.684.6l.151.131q.361.309.737.614l.175.141c.257.207.517.413.782.616l.1.077q.375.286.761.564l.154.112q.408.291.829.575l.2.131c.285.189.573.377.867.56l.132.081q.415.257.84.5l.15.088q.454.258.919.5l.209.11q.469.243.95.472l.156.072q.46.214.929.414l.134.058c.332.139.669.27,1.008.4l.218.08q.509.185,1.028.351l.177.054q.509.157,1.028.294l.1.027c.361.093.727.177,1.1.254l.225.047q.546.109,1.1.194l.2.028c.374.053.75.1,1.13.134l.059.006c.39.035.784.057,1.18.072l.226.008q.581.016,1.171,0l.22-.007c.411-.014.825-.035,1.243-.071.292-.026.59-.064.891-.107l.256-.039q.362-.057.734-.13c.07-.014.14-.026.211-.04q.465-.1.942-.216c.072-.018.145-.038.217-.057q.387-.1.781-.215l.279-.082c.32-.1.642-.2.968-.308l.033-.01c.338-.114.679-.237,1.023-.364l.292-.11q.407-.154.82-.32l.252-.1q.52-.213,1.048-.443l.237-.106q.426-.189.857-.388l.318-.148c.332-.156.665-.315,1-.48l.09-.044q.543-.268,1.091-.551l.318-.165q.428-.223.857-.453l.281-.151q.546-.3,1.1-.6l.246-.139q.447-.252.9-.511l.324-.188q.507-.3,1.014-.6l.107-.063q.557-.333,1.112-.676l.313-.193q.435-.269.869-.543l.279-.175q.552-.35,1.1-.7l.208-.136q.461-.3.92-.6l.3-.2q.508-.337,1.011-.677l.085-.057q.549-.372,1.091-.745l.267-.185q.439-.3.874-.607l.23-.161q.538-.378,1.068-.755l.119-.085q.476-.34.944-.679l.226-.163q.5-.365,1-.727l.027-.019q.525-.386,1.038-.767l.157-.118.89-.667.125-.094q1-.756,1.943-1.483l.117-.09q.949-.734,1.827-1.426l.031-.025c4.47-3.526,7.4-6.1,7.4-6.1l-.058-.11a11.724,11.724,0,0,0,2.241.214,8.228,8.228,0,0,0,6.536-2.769c3.459-.8,6.923-2.657,6.318-4.656-.394-1.3-1.936-1.691-3.815-1.524.006-.05.015-.1.021-.149,2.516-1.3,4.355-3.058,3.656-4.627-.561-1.261-2.107-1.553-3.954-1.263-.034-.128-.067-.258-.105-.383,1.853-1.374,2.967-2.945,2.259-4.273-.67-1.256-2.253-1.492-4.117-1.12,4.423-4.346,12.652-13.044,8.472-13.768-4.667-.809-14.546,10.132-17.692,13.779-2.251-1.393-5-1.7-7.123,1a10.034,10.034,0,0,0-2,4.409c-27.595,13.145-33.415,16.306-33.415,16.306s-11.343-15.54-22.985-26.249c-6.357-5.847-18.245-8.786-18.245-8.786l0,0a22.589,22.589,0,0,0-3.458-.86c-.084-.1-.167-.2-.252-.305l0-.024-.044-.026a24.132,24.132,0,0,0-4.651-4.228l.423,1.779-2.617-1.515-.007.018.016-.278,2.185-.005a21.8,21.8,0,0,0-2.113-1.287l.037-.663a24.456,24.456,0,0,0,14.562-16.45c6.88,1.992,11.3-12.726,5.258-13.882a9.677,9.677,0,0,0-1.378-.164,16.894,16.894,0,0,0-.334-8.324H177.557a17.45,17.45,0,0,0-1.267,8.324,10.067,10.067,0,0,0-1.4.164c-6.175,1.156-3.4,15.874,3.706,13.882a21.013,21.013,0,0,0,12.711,16.445l-.037.67a25.3,25.3,0,0,0-2.349,1.345l2.274-.006-.012.211-3.354,1.824,1.092-2.029a28.507,28.507,0,0,0-5.041,4.177l-.032.017v.016c-.1.1-.195.209-.292.313a24.412,24.412,0,0,0-4.1,1.046,34.261,34.261,0,0,0-18.274,7.566c-10.2,8.516-25.436,28.409-25.436,28.409s-.763-1.236-3-4.377v27.219l.176.021C133.291,196.2,133.659,196.229,134.027,196.245Z" transform="translate(-127.01 -85.744)" opacity="0.05" style="mix-blend-mode: multiply;isolation: isolate"/>
        </g>
        <g id="Group_59" data-name="Group 59">
          <path id="Path_38" data-name="Path 38" d="M228.265,145.5a20.1,20.1,0,0,1,24.164-.064" transform="translate(-123.281 -81.694)" fill="none" stroke="#49547a" stroke-linecap="round" stroke-linejoin="round" stroke-width="4.218"/>
          <g id="Group_38" data-name="Group 38" transform="translate(137.853 69.041)">
            <g id="Group_36" data-name="Group 36" transform="translate(0 0.537)">
              <path id="Path_39" data-name="Path 39" d="M290.883,160.182s12.053,3.154,18.736,9.429c12.242,11.493,24.453,28.17,24.453,28.17s5.792-3.482,33.579-18.064l9.141,16.921s-26.735,26.474-41.594,27.885c-17.525,1.664-30.488-19.194-30.488-19.194S303.383,175.307,290.883,160.182Z" transform="translate(-290.883 -160.182)" fill="#f7fdff"/>
              <path id="Path_40" data-name="Path 40" d="M348.024,259.626c-10.793,1.025-21.735-9.667-28.98-14.631,3.293,4.662,14.8,19.178,29.533,17.779,10.38-.986,26.552-14.2,35.361-22.078C371.756,247.184,356.072,258.862,348.024,259.626Z" transform="translate(-304.262 -198.435)" opacity="0.03" style="mix-blend-mode: multiply;isolation: isolate"/>
            </g>
            <g id="Group_37" data-name="Group 37" transform="translate(75.6)">
              <path id="Path_41" data-name="Path 41" d="M450.141,175.243s12.2-17.079,17.845-16.039S457.867,176.6,457.867,176.6Z" transform="translate(-442.147 -159.159)" fill="#e6ae9c"/>
              <path id="Path_42" data-name="Path 42" d="M457.273,198.654c0,6.13-2.467,11.1-8.6,11.1a11.1,11.1,0,1,1,0-22.2C454.806,187.555,457.273,192.525,457.273,198.654Z" transform="translate(-436.178 -172.65)" fill="#e6ae9c"/>
              <path id="Path_43" data-name="Path 43" d="M465.239,188.439c2.325,4.235-11.3,10.781-13.26,7.2S462.693,183.8,465.239,188.439Z" transform="translate(-442.922 -172.415)" fill="#ffc2ad"/>
              <path id="Path_44" data-name="Path 44" d="M469.69,200.456c1.923,4.118-11.264,9.425-12.887,5.948S467.585,195.946,469.69,200.456Z" transform="translate(-445.243 -178.08)" fill="#ffc2ad"/>
              <path id="Path_45" data-name="Path 45" d="M471.125,213.147c1.325,3.966-11.286,7.435-12.406,4.085S469.673,208.8,471.125,213.147Z" transform="translate(-446.187 -184.012)" fill="#ffc2ad"/>
              <path id="Path_46" data-name="Path 46" d="M437.6,202.768s-5.448-8.527-.841-15.3,13.553,4.072,11.114,6.237-6.143-.848-6.143-.848S446.293,199.808,437.6,202.768Z" transform="translate(-434.911 -171.565)" fill="#ffc2ad"/>
            </g>
          </g>
          <g id="Group_40" data-name="Group 40" transform="translate(0 54.653)">
            <g id="Group_39" data-name="Group 39" transform="translate(14.808 15.127)">
              <path id="Path_47" data-name="Path 47" d="M137.486,160.565a31.215,31.215,0,0,0-17.852,8.121c-9.725,9.14-23.847,30.488-23.847,30.488s-4.64-7.409-24.082-32.042L56.466,178.864s19.12,41.156,36.378,44.628S124.2,201.931,124.2,201.931,124.985,175.69,137.486,160.565Z" transform="translate(-56.466 -160.565)" fill="#f7fdff"/>
              <path id="Path_48" data-name="Path 48" d="M94.32,238.816c-11.722-2.359-27.408-26.783-35.911-39.372,4.173,8.44,20.458,39.522,35.358,42.52,13.818,2.781,25.61-12.713,29.762-19C116.666,228.777,105.5,241.066,94.32,238.816Z" transform="translate(-57.389 -179.036)" opacity="0.03" style="mix-blend-mode: multiply;isolation: isolate"/>
            </g>
            <path id="Path_49" data-name="Path 49" d="M63.987,144.9c-3.243-.236-5.557,6.533-6.143,8.441-.956-1.49-2.158-4.176-3.97-6.833h0c-2.489-5.959-6.415-14.391-8.844-14.734-4.308-.608,1.069,11.518,3.463,16.532-.045.022-.088.045-.133.067-3.883-5.337-10.31-13.244-13.91-12.623-3.7.638,4.151,10.229,9.453,16.2-.109.142-.216.29-.321.439-4.274-3.953-10.687-9.163-13.834-8.129-3.7,1.216,6.275,9.228,11.585,13.222q-.124.484-.214.962c-4.2-3.254-9.8-6.939-12.257-5.665C24.676,154.938,43.52,166.49,43.52,166.49l.008-.011a8.818,8.818,0,0,0,2.11,1.262,10.581,10.581,0,0,0,10.812-1.509v0s4.261-1.941,7.469-11.226C63.92,155.008,67.761,145.169,63.987,144.9Z" transform="translate(-28.256 -131.747)" fill="#ffc2ad"/>
          </g>
          <g id="Group_47" data-name="Group 47" transform="translate(81.332 38.664)">
            <path id="Path_50" data-name="Path 50" d="M250.905,257.163l3.857-76.94a22.535,22.535,0,0,0-22.469-22.468H205.671A22.534,22.534,0,0,0,183.2,180.223l3.857,76.94Z" transform="translate(-183.203 -128.114)" fill="#6992b3"/>
            <g id="Group_41" data-name="Group 41" transform="translate(25.927)">
              <rect id="Rectangle_29" data-name="Rectangle 29" width="19.706" height="40.09" rx="9.853" fill="#ffc2ad"/>
              <path id="Path_51" data-name="Path 51" d="M242.45,101.286h0a9.882,9.882,0,0,0-9.853,9.853V125.09a23.681,23.681,0,0,0,14.228,4.744h.011a23.664,23.664,0,0,0,5.467-.644V111.139A9.882,9.882,0,0,0,242.45,101.286Z" transform="translate(-232.597 -101.286)" fill="#e6ae9c"/>
            </g>
            <g id="Group_44" data-name="Group 44" transform="translate(18.815 25.359)">
              <g id="Group_42" data-name="Group 42" transform="translate(10.344 14.226)">
                <path id="Path_52" data-name="Path 52" d="M245.375,252.84,252,244.911,248.41,188.2l-3.035-3.154L242.34,188.2l-3.586,56.711Z" transform="translate(-238.754 -180.665)" fill="#385973"/>
                <circle id="Ellipse_4" data-name="Ellipse 4" cx="4.38" cy="4.38" r="4.38" transform="translate(2.24)" fill="#477191"/>
              </g>
              <g id="Group_43" data-name="Group 43">
                <path id="Path_53" data-name="Path 53" d="M226.16,149.6s2.507,8.861,9.859,11.314v3.417l-5.415,7.755s-10.855-4.312-11.555-18.205Z" transform="translate(-219.048 -149.598)" fill="#87abc7"/>
                <path id="Path_54" data-name="Path 54" d="M261.227,149.6s-2.507,8.861-9.859,11.314v3.417l5.415,7.755s10.855-4.312,11.555-18.205Z" transform="translate(-234.403 -149.598)" fill="#87abc7"/>
              </g>
            </g>
            <path id="Path_55" data-name="Path 55" d="M236.035,158.362c.7,3.115,5.507,28.388-17.046,46.884-22.557-18.5-17.741-43.781-17.046-46.887A22.55,22.55,0,0,0,183.2,180.51l3.857,76.94h63.845l3.857-76.94A22.549,22.549,0,0,0,236.035,158.362Z" transform="translate(-183.203 -128.401)" fill="#fff"/>
            <path id="Path_56" data-name="Path 56" d="M250.97,247.183c-.105.088-.207.176-.313.263-.107-.087-.208-.176-.313-.263-.284,5.171-.484,17.175-.484,31.161,0,8.075.067,15.486.178,21.307h1.24c.111-5.821.178-13.232.178-21.307C251.455,264.358,251.255,252.354,250.97,247.183Z" transform="translate(-214.871 -170.602)" fill="#dce7eb"/>
            <path id="Path_57" data-name="Path 57" d="M221.519,339.614a158.779,158.779,0,0,1-31.487-3.107l.272,5.44H254.15l.288-5.739A158.334,158.334,0,0,1,221.519,339.614Z" transform="translate(-186.447 -212.897)" opacity="0.05" style="mix-blend-mode: multiply;isolation: isolate"/>
            <g id="Group_45" data-name="Group 45" transform="translate(7.501 29.958)">
              <path id="Path_58" data-name="Path 58" d="M208.719,159.267a27.41,27.41,0,0,0-3.462.979c-.131.22-7.265,7.763-7.763,30.352l7.457,2.607-4.445,9.141s8.107,14.658,25.272,19.9V206.607C200.819,189.141,207.951,162.478,208.719,159.267Z" transform="translate(-197.494 -158.79)" fill="#dce7eb"/>
              <path id="Path_59" data-name="Path 59" d="M268.438,159.267a27.384,27.384,0,0,1,3.462.979c.132.22,7.265,7.763,7.763,30.352l-7.457,2.607,4.445,9.141s-8.107,14.658-25.272,19.9V206.607C276.338,189.141,269.207,162.478,268.438,159.267Z" transform="translate(-223.095 -158.79)" fill="#dce7eb"/>
              <path id="Path_60" data-name="Path 60" d="M209.837,158.359a22.284,22.284,0,0,0-3.129.77c-.119.208-6.889,12.159-6.889,29.857l8.241,3.059-5.018,10.284a56.057,56.057,0,0,0,23.84,18.247V205.246C204.325,186.746,209.142,161.465,209.837,158.359Z" transform="translate(-198.599 -158.359)" fill="#f7fdff"/>
              <path id="Path_61" data-name="Path 61" d="M268.414,158.359a22.283,22.283,0,0,1,3.129.77c.119.208,6.889,12.159,6.889,29.857l-8.241,3.059,5.017,10.284a56.057,56.057,0,0,1-23.84,18.247V205.246C273.926,186.746,269.108,161.465,268.414,158.359Z" transform="translate(-223.09 -158.359)" fill="#f7fdff"/>
            </g>
            <g id="Group_46" data-name="Group 46" transform="translate(39.552 94.653)">
              <circle id="Ellipse_5" data-name="Ellipse 5" cx="1.502" cy="1.502" r="1.502" fill="#dce7eb"/>
              <path id="Path_62" data-name="Path 62" d="M261.558,299.9a1.5,1.5,0,1,1-1.5-1.5A1.5,1.5,0,0,1,261.558,299.9Z" transform="translate(-258.555 -289.586)" fill="#dce7eb"/>
              <path id="Path_63" data-name="Path 63" d="M261.558,316.682a1.5,1.5,0,1,1-1.5-1.5A1.5,1.5,0,0,1,261.558,316.682Z" transform="translate(-258.555 -297.561)" fill="#dce7eb"/>
              <circle id="Ellipse_6" data-name="Ellipse 6" cx="1.502" cy="1.502" r="1.502" transform="translate(0 26.429)" fill="#dce7eb"/>
            </g>
          </g>
          <g id="Group_52" data-name="Group 52" transform="translate(86.027)">
            <g id="Group_48" data-name="Group 48" transform="translate(0 28.904)">
              <path id="Path_64" data-name="Path 64" d="M291.479,88.059s.135-6.554,6.923-5.176,1.593,20.722-6.923,13.485Z" transform="translate(-239.34 -82.692)" fill="#e6ae9c"/>
              <path id="Path_65" data-name="Path 65" d="M202.19,88.059s-.135-6.554-6.923-5.176-1.593,20.722,6.923,13.485Z" transform="translate(-192.148 -82.692)" fill="#e6ae9c"/>
            </g>
            <rect id="Rectangle_30" data-name="Rectangle 30" width="47.681" height="61.12" rx="23.841" transform="translate(7.25 2.673)" fill="#ffc2ad"/>
            <path id="Path_66" data-name="Path 66" d="M289.64,51.51s10.325,9.842,2.475,24.53c0,0-.139-.136-.372-.415-1.309-1.569-5.581-7.656-4.679-19.421Z" transform="translate(-237.184 -38.974)" fill="#49547a"/>
            <path id="Path_67" data-name="Path 67" d="M250.815,115.284a1.4,1.4,0,0,1,1.391,1.605,10.025,10.025,0,0,1-19.791,0,1.4,1.4,0,0,1,1.39-1.605Z" transform="translate(-211.27 -69.273)" fill="#fff"/>
            <path id="Path_68" data-name="Path 68" d="M247.278,102.5a4.953,4.953,0,0,1-4.425-2.759v.7a4.425,4.425,0,1,0,8.85,0v-.7A4.953,4.953,0,0,1,247.278,102.5Z" transform="translate(-216.238 -61.89)" fill="#e6ae9c"/>
            <g id="Group_49" data-name="Group 49" transform="translate(15.937 28.284)">
              <path id="Path_69" data-name="Path 69" d="M222.51,88.261V85.335a3.776,3.776,0,0,1,3.7-3.823h0a3.776,3.776,0,0,1,3.7,3.823v2.926" transform="translate(-222.51 -81.512)" fill="none" stroke="#49547a" stroke-linecap="round" stroke-linejoin="round" stroke-width="2.307"/>
              <path id="Path_70" data-name="Path 70" d="M266.114,88.261V85.335a3.776,3.776,0,0,1,3.7-3.823h0a3.776,3.776,0,0,1,3.7,3.823v2.926" transform="translate(-243.226 -81.512)" fill="none" stroke="#49547a" stroke-linecap="round" stroke-linejoin="round" stroke-width="2.307"/>
            </g>
            <path id="Path_71" data-name="Path 71" d="M203.294,64.693s.139-.136.372-.415c1.309-1.569,5.581-7.656,4.679-19.421,0,0,8.016,4.078,27.27,3.786,14.321-.217,17.852-7.117,16.565-15.6,0,0-4.192,1.239-16.7-3.407-13.729-5.1-29.389-.122-29.706,10.524C205.768,40.163,195.443,50.005,203.294,64.693Z" transform="translate(-196.044 -27.626)" fill="#49547a"/>
            <g id="Group_50" data-name="Group 50" transform="translate(14.186 21.914)">
              <path id="Path_72" data-name="Path 72" d="M228.873,73.253a1.206,1.206,0,0,1-.877-.375,5.794,5.794,0,0,0-6.736,0,1.211,1.211,0,1,1-1.753-1.672,8.079,8.079,0,0,1,10.241,0,1.211,1.211,0,0,1-.876,2.047Z" transform="translate(-219.173 -69.376)" fill="#49547a"/>
            </g>
            <g id="Group_51" data-name="Group 51" transform="translate(37.073 21.914)">
              <path id="Path_73" data-name="Path 73" d="M272.477,73.253a1.206,1.206,0,0,1-.877-.375,5.794,5.794,0,0,0-6.736,0,1.211,1.211,0,1,1-1.753-1.672,8.079,8.079,0,0,1,10.241,0,1.211,1.211,0,0,1-.876,2.047Z" transform="translate(-262.777 -69.376)" fill="#49547a"/>
            </g>
          </g>
          <g id="Group_58" data-name="Group 58" transform="translate(79.998 63.739)">
            <path id="Path_74" data-name="Path 74" d="M184.96,233.285h-2.866a1.431,1.431,0,0,1-1.431-1.431V215.687a7.961,7.961,0,0,1,7.938-7.938h9.17a7.961,7.961,0,0,1,7.938,7.938v16.168a1.431,1.431,0,0,1-1.431,1.431h-2.936" transform="translate(-180.663 -176.942)" fill="none" stroke="#49547a" stroke-linecap="round" stroke-linejoin="round" stroke-width="3.164"/>
            <g id="Group_53" data-name="Group 53" transform="translate(2.7 52.392)">
              <path id="Path_75" data-name="Path 75" d="M190.385,256.628H189.06a2.419,2.419,0,0,1-2.412-2.412h0a2.419,2.419,0,0,1,2.412-2.412h1.325a2.419,2.419,0,0,1,2.412,2.412h0A2.419,2.419,0,0,1,190.385,256.628Z" transform="translate(-186.206 -250.264)" fill="#6270a3"/>
              <path id="Path_76" data-name="Path 76" d="M187.4,256.774h0a1.6,1.6,0,0,1-1.6-1.6v-4.709a1.6,1.6,0,0,1,1.6-1.6h0a1.6,1.6,0,0,1,1.6,1.6v4.709A1.6,1.6,0,0,1,187.4,256.774Z" transform="translate(-185.806 -248.871)" fill="#49547a"/>
            </g>
            <g id="Group_57" data-name="Group 57" transform="translate(11.672)">
              <g id="Group_54" data-name="Group 54">
                <path id="Path_77" data-name="Path 77" d="M274.3,149.057c7.979,5.688,13.4,16.855,13.4,29.7v19.314" transform="translate(-236.823 -149.057)" fill="none" stroke="#49547a" stroke-linecap="round" stroke-linejoin="round" stroke-width="4.218"/>
                <path id="Path_78" data-name="Path 78" d="M202.9,178.815c0-12.8,5.383-23.929,13.314-29.636" transform="translate(-202.9 -149.115)" fill="none" stroke="#49547a" stroke-linecap="round" stroke-linejoin="round" stroke-width="4.218"/>
              </g>
              <g id="Group_55" data-name="Group 55" transform="translate(3.052 52.392)">
                <path id="Path_79" data-name="Path 79" d="M211.127,251.8h1.326a2.419,2.419,0,0,1,2.411,2.412h0a2.419,2.419,0,0,1-2.411,2.412h-1.326a2.419,2.419,0,0,1-2.412-2.412h0A2.419,2.419,0,0,1,211.127,251.8Z" transform="translate(-208.715 -250.264)" fill="#6270a3"/>
                <path id="Path_80" data-name="Path 80" d="M216.784,248.871h0a1.6,1.6,0,0,1,1.6,1.6v4.709a1.6,1.6,0,0,1-1.6,1.6h0a1.6,1.6,0,0,1-1.6-1.6v-4.709A1.6,1.6,0,0,1,216.784,248.871Z" transform="translate(-211.79 -248.871)" fill="#49547a"/>
              </g>
              <g id="Group_56" data-name="Group 56" transform="translate(45.354 43.486)">
                <circle id="Ellipse_7" data-name="Ellipse 7" cx="5.256" cy="5.256" r="5.256" transform="translate(0.272 0.272)" fill="#6270a3"/>
                <circle id="Ellipse_8" data-name="Ellipse 8" cx="4.234" cy="4.234" r="4.234" transform="translate(0 3.225) rotate(-22.384)" fill="#49547a"/>
                <circle id="Ellipse_9" data-name="Ellipse 9" cx="2.849" cy="2.849" r="2.849" transform="translate(2.678 2.678)" fill="#9ba6cf"/>
              </g>
            </g>
          </g>
        </g>
      </g>
    </g>
  </g>
</svg>
